<?xml version="1.0" encoding="utf-8"?>
<!-- Generator: Adobe Illustrator 27.5.0, SVG Export Plug-In . SVG Version: 6.00 Build 0)  -->
<svg version="1.1" xmlns="http://www.w3.org/2000/svg" xmlns:xlink="http://www.w3.org/1999/xlink" x="0px" y="0px"
	 viewBox="0 0 500 500" style="enable-background:new 0 0 500 500;" xml:space="preserve">
<g id="BACKGROUND">
</g>
<g id="OBJECTS">
	<g>
		<g>
			
				<text transform="matrix(1 0 0 1 70.3439 350.7183)" style="fill:#64D5C1; font-family:'Rubik-Medium'; font-size:54.5658px; letter-spacing:2;">newmarket</text>
		</g>
		
			<text transform="matrix(1 0 0 1 124.9535 382.9556)" style="fill:#341846; font-family:'Rubik-Regular'; font-size:27.4018px; letter-spacing:4;">shop tagline</text>
		<g>
			<g>
				<path style="fill:#341846;" d="M224.105,287.736c-10.351,0-18.771-8.421-18.771-18.771c0-10.351,8.421-18.771,18.771-18.771
					s18.771,8.421,18.771,18.771C242.876,279.315,234.455,287.736,224.105,287.736z M224.105,261.193
					c-4.285,0-7.771,3.486-7.771,7.771c0,4.285,3.486,7.771,7.771,7.771c4.285,0,7.771-3.486,7.771-7.771
					C231.876,264.68,228.39,261.193,224.105,261.193z"/>
				<path style="fill:#341846;" d="M279.526,287.736c-10.351,0-18.772-8.421-18.772-18.771c0-10.351,8.421-18.771,18.772-18.771
					c10.351,0,18.771,8.421,18.771,18.771C298.297,279.315,289.876,287.736,279.526,287.736z M279.526,261.193
					c-4.285,0-7.772,3.486-7.772,7.771c0,4.285,3.486,7.771,7.772,7.771c4.285,0,7.771-3.486,7.771-7.771
					C287.297,264.68,283.811,261.193,279.526,261.193z"/>
				<path style="fill:#341846;" d="M194.605,273.467c-2.268,0-4.39-1.413-5.187-3.673l-38.347-108.752H133.64
					c-3.038,0-5.5-2.462-5.5-5.5c0-3.038,2.462-5.5,5.5-5.5h21.323c2.333,0,4.411,1.471,5.187,3.671l39.642,112.423
					c1.01,2.865-0.493,6.006-3.358,7.016C195.829,273.365,195.212,273.467,194.605,273.467z"/>
				<path style="fill:#341846;" d="M305.474,259.193c-1.408,0-2.815-0.537-3.889-1.611c-2.148-2.147-2.148-5.63,0-7.778l9.301-9.301
					v-5.852H184.672c-3.038,0-5.5-2.462-5.5-5.5c0-3.038,2.462-5.5,5.5-5.5h131.714c3.038,0,5.5,2.462,5.5,5.5v13.631
					c0,1.458-0.579,2.857-1.611,3.889l-10.912,10.912C308.289,258.656,306.881,259.193,305.474,259.193z"/>
				<path style="fill:#341846;" d="M316.386,234.65c-3.038,0-5.5-2.462-5.5-5.5v-41.09c0-3.038,2.462-5.5,5.5-5.5s5.5,2.462,5.5,5.5
					v41.09C321.886,232.188,319.423,234.65,316.386,234.65z"/>
				<path style="fill:#64D5C1;" d="M254.042,157.678L254.042,157.678v-56.42c0-14.724,11.936-26.66,26.66-26.66l0,0v56.42
					C280.702,145.742,268.766,157.678,254.042,157.678z"/>
				<path style="fill:#64D5C1;" d="M209.357,119.858h8.689c16.088,0,29.131,13.042,29.131,29.131v8.689h-8.689
					c-16.089,0-29.131-13.042-29.131-29.131V119.858z"/>
			</g>
			<path style="fill:#FF5F41;" d="M295.891,211.006c0-25.345-20.546-45.891-45.891-45.891s-45.891,20.546-45.891,45.891H295.891z"/>
		</g>
	</g>
</g>
</svg>
